<svg width="37" height="12" viewBox="0 0 37 12" fill="none" xmlns="http://www.w3.org/2000/svg">
<path d="M4.25669 1.10002H5.98954L9.82455 11.04H7.80762L6.87017 8.56203H3.34765L2.4244 11.04H0.407471L4.25669 1.10002ZM6.51508 7.20402L5.12311 3.29802L3.67433 7.20402H6.51508Z" fill="#2A7AE4"/>
<path d="M10.7318 0.820023H12.6351V8.68803C12.6351 8.95869 12.7014 9.16869 12.834 9.31803C12.9665 9.46736 13.1559 9.54203 13.4021 9.54203C13.5158 9.54203 13.6389 9.52336 13.7714 9.48603C13.9135 9.44869 14.046 9.40203 14.1691 9.34603L14.4248 10.774C14.1691 10.8954 13.8708 10.9887 13.53 11.054C13.1891 11.1194 12.8813 11.152 12.6067 11.152C12.0102 11.152 11.5462 10.998 11.2147 10.69C10.8928 10.3727 10.7318 9.92469 10.7318 9.34603V0.820023Z" fill="#2A7AE4"/>
<path d="M17.5266 11.18C16.7596 11.18 16.1773 10.9374 15.7796 10.452C15.3819 9.96669 15.183 9.24803 15.183 8.29603V3.70402H17.0863V7.89003C17.0863 9.01936 17.4982 9.58403 18.3221 9.58403C18.6914 9.58403 19.0464 9.47669 19.3873 9.26203C19.7377 9.03803 20.0218 8.70203 20.2396 8.25403V3.70402H22.1429V8.88402C22.1429 9.08002 22.176 9.22003 22.2423 9.30403C22.318 9.38803 22.4364 9.43469 22.5974 9.44403V11.04C22.408 11.0774 22.247 11.1007 22.1145 11.11C21.9914 11.1194 21.8777 11.124 21.7736 11.124C21.4327 11.124 21.1533 11.0494 20.9355 10.9C20.7272 10.7414 20.6041 10.5267 20.5662 10.256L20.5236 9.66803C20.1922 10.172 19.7661 10.55 19.2453 10.802C18.7245 11.054 18.1516 11.18 17.5266 11.18Z" fill="#2A7AE4"/>
<path d="M28.4659 5.32802C27.8882 5.33736 27.3722 5.44936 26.9177 5.66402C26.4631 5.86936 26.1364 6.18202 25.9376 6.60202V11.04H24.0343V3.70402H25.7814V5.27202C25.9139 5.02002 26.0702 4.79602 26.2501 4.60002C26.43 4.39469 26.6241 4.21736 26.8324 4.06802C27.0408 3.91869 27.2491 3.80669 27.4574 3.73202C27.6752 3.64802 27.8835 3.60602 28.0824 3.60602C28.1865 3.60602 28.2623 3.60602 28.3096 3.60602C28.3664 3.60602 28.4185 3.61069 28.4659 3.62002V5.32802Z" fill="#2A7AE4"/>
<path d="M31.4612 11.18C31.1014 11.18 30.7652 11.124 30.4527 11.012C30.1402 10.8907 29.8704 10.7274 29.6431 10.522C29.4158 10.3074 29.2359 10.06 29.1034 9.78003C28.9803 9.50003 28.9187 9.19203 28.9187 8.85603C28.9187 8.51069 28.9945 8.19336 29.146 7.90403C29.3069 7.60536 29.5247 7.35336 29.7993 7.14803C30.0834 6.94269 30.4196 6.78402 30.8078 6.67202C31.196 6.55069 31.6222 6.49002 32.0861 6.49002C32.4176 6.49002 32.7395 6.51802 33.052 6.57402C33.374 6.63002 33.658 6.70936 33.9042 6.81202V6.39202C33.9042 5.90669 33.7622 5.53336 33.4781 5.27202C33.2035 5.01069 32.7916 4.88002 32.2424 4.88002C31.8447 4.88002 31.4564 4.95002 31.0777 5.09002C30.6989 5.23002 30.3107 5.43536 29.913 5.70602L29.3306 4.51602C30.287 3.89069 31.3191 3.57802 32.427 3.57802C33.4971 3.57802 34.3256 3.83936 34.9127 4.36202C35.5093 4.87536 35.8075 5.62202 35.8075 6.60202V8.88402C35.8075 9.08002 35.8407 9.22003 35.907 9.30403C35.9827 9.38803 36.1011 9.43469 36.2621 9.44403V11.04C35.9401 11.1054 35.6608 11.138 35.424 11.138C35.0642 11.138 34.7849 11.0587 34.586 10.9C34.3966 10.7414 34.2783 10.5314 34.2309 10.27L34.1883 9.86403C33.8569 10.2934 33.4544 10.62 32.981 10.844C32.5075 11.068 32.0009 11.18 31.4612 11.18ZM32.0009 9.80803C32.3229 9.80803 32.6259 9.75203 32.91 9.64003C33.2035 9.52803 33.4308 9.37869 33.5917 9.19203C33.8001 9.03336 33.9042 8.85603 33.9042 8.66003V7.82002C33.677 7.73602 33.4308 7.67069 33.1656 7.62402C32.9005 7.56803 32.6448 7.54003 32.3986 7.54003C31.9062 7.54003 31.5038 7.65203 31.1913 7.87603C30.8788 8.09069 30.7226 8.36603 30.7226 8.70203C30.7226 9.01936 30.8457 9.28536 31.0919 9.50003C31.3381 9.70536 31.6411 9.80803 32.0009 9.80803Z" fill="#2A7AE4"/>
</svg>
