<svg width="35" height="12" viewBox="0 0 35 12" fill="none" xmlns="http://www.w3.org/2000/svg">
<path d="M7.77308 9.92003C6.9682 10.7134 6.03075 11.11 4.96073 11.11C4.29789 11.11 3.67293 10.9794 3.08584 10.718C2.50822 10.4567 2.00162 10.0974 1.56604 9.64003C1.13993 9.18269 0.799037 8.64603 0.54337 8.03003C0.297172 7.40469 0.174072 6.73269 0.174072 6.01402C0.174072 5.33269 0.297172 4.69336 0.54337 4.09602C0.799037 3.48936 1.14466 2.96202 1.58024 2.51402C2.02529 2.05669 2.5461 1.69736 3.14265 1.43602C3.73921 1.16536 4.38785 1.03002 5.08857 1.03002C6.03548 1.03002 6.8451 1.22602 7.51741 1.61802C8.19919 2.01002 8.71053 2.53736 9.05141 3.20002L7.58843 4.26402C7.33276 3.76936 6.97293 3.39136 6.50894 3.13002C6.05442 2.86869 5.55729 2.73802 5.01755 2.73802C4.59144 2.73802 4.19847 2.82669 3.83864 3.00402C3.48828 3.18136 3.18527 3.42402 2.9296 3.73202C2.6834 4.04002 2.48928 4.39469 2.34724 4.79602C2.21468 5.19736 2.14839 5.62202 2.14839 6.07002C2.14839 6.53669 2.22415 6.97536 2.37565 7.38602C2.52716 7.78736 2.73548 8.13736 3.00062 8.43603C3.26575 8.73469 3.57824 8.97269 3.93806 9.15003C4.30736 9.31803 4.70507 9.40203 5.13118 9.40203C6.1065 9.40203 6.98713 8.94936 7.77308 8.04403V7.34403H5.74194V5.93002H9.3923V11.04H7.77308V9.92003Z" fill="#464646"/>
<path d="M14.3297 11.18C13.7331 11.18 13.1934 11.082 12.7104 10.886C12.2275 10.6807 11.8156 10.4054 11.4747 10.06C11.1338 9.71469 10.8687 9.31336 10.6793 8.85603C10.4994 8.39869 10.4094 7.91803 10.4094 7.41402C10.4094 6.89136 10.4994 6.40136 10.6793 5.94402C10.8592 5.47736 11.1196 5.07136 11.4605 4.72602C11.8014 4.37136 12.2133 4.09136 12.6962 3.88602C13.1886 3.68069 13.7378 3.57802 14.3439 3.57802C14.9499 3.57802 15.4896 3.68069 15.9631 3.88602C16.446 4.09136 16.8532 4.36669 17.1846 4.71202C17.5255 5.05736 17.7812 5.45869 17.9516 5.91602C18.1315 6.37336 18.2215 6.84936 18.2215 7.34403C18.2215 7.46536 18.2168 7.58202 18.2073 7.69403C18.2073 7.80603 18.1978 7.89936 18.1789 7.97403H12.4264C12.4548 8.26336 12.5258 8.52002 12.6394 8.74403C12.753 8.96803 12.8998 9.15936 13.0797 9.31803C13.2596 9.47669 13.4632 9.59803 13.6905 9.68203C13.9178 9.76603 14.1545 9.80803 14.4007 9.80803C14.7794 9.80803 15.1345 9.71936 15.466 9.54203C15.8069 9.35536 16.0388 9.11269 16.1619 8.81402L17.7954 9.26203C17.5208 9.82203 17.0805 10.284 16.4744 10.648C15.8779 11.0027 15.1629 11.18 14.3297 11.18ZM16.2614 6.75602C16.214 6.20536 16.0057 5.76669 15.6364 5.44002C15.2766 5.10402 14.8363 4.93602 14.3155 4.93602C14.0598 4.93602 13.8183 4.98269 13.5911 5.07602C13.3733 5.16002 13.1792 5.28136 13.0087 5.44002C12.8383 5.59869 12.6962 5.79002 12.5826 6.01402C12.4784 6.23802 12.4169 6.48536 12.3979 6.75602H16.2614Z" fill="#464646"/>
<path d="M22.8325 11.18C22.2359 11.18 21.6962 11.082 21.2133 10.886C20.7303 10.6807 20.3184 10.4054 19.9775 10.06C19.6366 9.71469 19.3715 9.31336 19.1821 8.85603C19.0022 8.39869 18.9123 7.91803 18.9123 7.41402C18.9123 6.89136 19.0022 6.40136 19.1821 5.94402C19.362 5.47736 19.6224 5.07136 19.9633 4.72602C20.3042 4.37136 20.7161 4.09136 21.1991 3.88602C21.6915 3.68069 22.2407 3.57802 22.8467 3.57802C23.4527 3.57802 23.9925 3.68069 24.4659 3.88602C24.9488 4.09136 25.356 4.36669 25.6874 4.71202C26.0283 5.05736 26.284 5.45869 26.4544 5.91602C26.6344 6.37336 26.7243 6.84936 26.7243 7.34403C26.7243 7.46536 26.7196 7.58202 26.7101 7.69403C26.7101 7.80603 26.7006 7.89936 26.6817 7.97403H20.9292C20.9576 8.26336 21.0286 8.52002 21.1422 8.74403C21.2559 8.96803 21.4026 9.15936 21.5826 9.31803C21.7625 9.47669 21.9661 9.59803 22.1933 9.68203C22.4206 9.76603 22.6573 9.80803 22.9035 9.80803C23.2823 9.80803 23.6374 9.71936 23.9688 9.54203C24.3097 9.35536 24.5417 9.11269 24.6648 8.81402L26.2982 9.26203C26.0236 9.82203 25.5833 10.284 24.9773 10.648C24.3807 11.0027 23.6658 11.18 22.8325 11.18ZM24.7642 6.75602C24.7169 6.20536 24.5085 5.76669 24.1392 5.44002C23.7794 5.10402 23.3391 4.93602 22.8183 4.93602C22.5626 4.93602 22.3212 4.98269 22.0939 5.07602C21.8761 5.16002 21.682 5.28136 21.5115 5.44002C21.3411 5.59869 21.1991 5.79002 21.0854 6.01402C20.9813 6.23802 20.9197 6.48536 20.9008 6.75602H24.7642Z" fill="#464646"/>
<path d="M32.9688 11.04L30.8098 7.86203L29.7871 8.85603V11.04H27.8838V0.820023H29.7871V7.02203L32.7699 3.71802H34.801L32.0313 6.82603L34.9999 11.04H32.9688Z" fill="#464646"/>
</svg>
